<?xml version="1.0" encoding="utf-8"?>
<svg version="1.1" id="Layer_1"
xmlns="http://www.w3.org/2000/svg"
xmlns:xlink="http://www.w3.org/1999/xlink"
width="1092px" height="1182px"
xml:space="preserve">
<g id="PathID_1" transform="matrix(12.5582, 0, 0, 12.5582, -279.9, -196.45)" opacity="1">
<path style="fill:#729325;fill-opacity:1" d="M98 57.65Q98 58.1 97.8 58.55Q97.6 59 97.25 59.4L96.6 60.4L95.85 61.4Q95.5 61.9 95.15 62.15Q94.75 62.4 94.3 62.35Q93.85 62.3 93.25 61.8Q92.8 61.4 92.35 60.85Q91.9 60.35 91.55 59.8Q91.2 59.2 91 58.55Q90.85 57.95 90.95 57.35L91.25 55.85Q91.5 54.9 91.95 53.95Q92.4 52.95 92.95 52.2Q93.5 51.45 94.2 51.45L94.35 51.45L94.6 51.5L94.8 51.55L95 51.7Q95.5 52.05 95.9 52.65Q96.35 53.2 96.7 53.9L97.3 55.25L97.8 56.5Q98.05 57.15 98 57.65" />
</g>
<g id="PathID_2" transform="matrix(12.5582, 0, 0, 12.5582, -279.9, -196.45)" opacity="1">
</g>
<g id="PathID_3" transform="matrix(15.9154, 0, 0, 15.9154, -631.1, -455.35)" opacity="1">
<path style="fill:#729325;fill-opacity:1" d="M100.7 65.15L100.9 65.9L101.05 66.65L101.25 67.4L101.5 68.35L101.75 69.4L101.95 70.4Q102.05 70.9 102.05 71.45Q102 72.35 101.5 72.25Q101.05 72.15 100.45 71.6L99.35 70.3L98.7 69.25L98.15 68.15L97.55 67L97.15 65.85Q96.95 65.25 97.05 64.75L97.25 63.75Q97.45 63.2 97.75 62.75Q98.05 62.3 98.45 62Q98.9 61.75 99.45 61.75L99.5 61.75L99.6 61.75L99.65 61.8L99.75 61.85Q99.9 62 100 62.35L100.2 63.05L100.35 63.85L100.5 64.45L100.7 65.15" />
</g>
<g id="PathID_4" transform="matrix(15.9154, 0, 0, 15.9154, -631.1, -455.35)" opacity="1">
</g>
<g id="PathID_5" transform="matrix(9.13325, 0, 0, 9.13325, 50.15, 3.5)" opacity="1">
<path style="fill:#73744F;fill-opacity:1" d="M59.45 45.15Q60 45.7 60.35 46.4Q60.75 47.05 61.05 47.85L61.7 49.35L62.25 50.55Q62.55 51.2 62.7 51.8Q62.85 52.4 62.8 53.05Q62.8 53.65 62.5 54.3L61.65 55.85L60.8 57.45Q60.3 58.25 59.75 58.9Q59.15 59.6 58.45 60.05L58.05 60.25L57.6 60.4L57.15 60.5L56.75 60.6L54.5 60.8Q53.3 60.9 52.2 60.85Q51.1 60.75 50.1 60.35Q49.1 59.95 48.45 59.05L47.1 57.1Q46.45 56.05 46.05 55Q45.65 53.9 45.55 52.75Q45.5 51.65 46 50.55L46.8 48.6Q47.2 47.6 47.8 46.7Q48.35 45.8 49.15 45.15Q49.9 44.45 51 44.25L52.75 43.9Q53.65 43.8 54.6 43.8L56.4 43.9Q57.3 44.05 58.15 44.35Q58.9 44.65 59.45 45.15" />
</g>
<g id="PathID_6" transform="matrix(9.13325, 0, 0, 9.13325, 50.15, 3.5)" opacity="1">
</g>
<g id="PathID_7" transform="matrix(9.13325, 0, 0, 9.13325, 50.15, 15.2)" opacity="1">
<path style="fill:#73744F;fill-opacity:1" d="M59.3 63.45Q59.85 63.95 60.25 64.65Q60.6 65.3 60.9 66.1L61.55 67.6L62.05 68.8L62.45 70.1Q62.6 70.7 62.55 71.35Q62.55 71.95 62.3 72.6L61.55 74.2L60.7 75.85Q60.25 76.65 59.65 77.3Q59.1 77.95 58.4 78.35L57.95 78.5L57.5 78.65L57.05 78.75L56.6 78.8L54.25 78.9Q53.1 79 52 78.85Q50.85 78.75 49.85 78.35Q48.9 77.9 48.15 76.95L47.05 75.5Q46.45 74.75 46 73.9Q45.55 73.05 45.3 72.2Q45 71.35 45.15 70.55Q45.3 69.45 45.75 68.25Q46.2 67 46.9 65.95Q47.6 64.85 48.55 64Q49.45 63.15 50.6 62.85Q51.45 62.6 52.4 62.45Q53.3 62.3 54.25 62.25L56.15 62.35Q57.1 62.45 57.95 62.7Q58.75 62.9 59.3 63.45" />
</g>
<g id="PathID_8" transform="matrix(9.13325, 0, 0, 9.13325, 50.15, 15.2)" opacity="1">
</g>
<g id="PathID_9" transform="matrix(9.13325, 0, 0, 9.13325, 50.15, 9.35)" opacity="1">
<path style="fill:#73744F;fill-opacity:1" d="M53.65 82.4L55.85 82.4Q56.95 82.45 57.95 82.7Q58.95 82.95 59.6 83.65Q60.2 84.25 60.8 85.25Q61.45 86.2 61.9 87.25Q62.3 88.35 62.35 89.4Q62.45 90.5 61.95 91.35Q61.45 92.1 60.8 92.7Q60.15 93.35 59.4 93.85L57.9 94.85L56.4 95.8Q55.6 96.25 54.9 96.35Q54.25 96.45 53.65 96.3Q53 96.1 52.35 95.7L51.05 94.85L49.75 94.05L48.35 93.2Q47.65 92.8 47 92.3Q46.35 91.85 45.95 91.35Q45.5 90.8 45.45 90.2Q45.4 89.55 45.6 88.95Q45.75 88.3 46.1 87.7L46.7 86.6L47.35 85.35L48 84.3L48.7 83.35Q49.1 82.95 49.6 82.75L50 82.55L50.5 82.4L51.1 82.35L51.75 82.4Q52.55 82.45 53.65 82.4" />
</g>
<g id="PathID_10" transform="matrix(9.13325, 0, 0, 9.13325, 50.15, 9.35)" opacity="1">
</g>
<g id="PathID_11" transform="matrix(9.13325, 0, 0, 9.13325, 50.15, 3.5)" opacity="1">
<path style="fill:#B93B7C;fill-opacity:1" d="M58.75 6.95Q61.05 8.75 62.65 11.3Q64.25 13.8 65.05 16.5Q65.85 19.15 65.6 20.9L65.35 22.35L65.1 23.85L64.75 25.35L64.45 26.85L64.2 27.9L64.05 29.05L63.9 30.15L63.7 31.25L63.65 31.35L63.6 31.5L63.55 31.6L63.5 31.7L63.35 31.75L63.2 31.75L63.05 31.75L62.9 31.8L60.4 31.65L57.95 31.55L55.45 31.55L53.05 31.55L50.95 31.6L48.9 31.75L46.8 31.85L44.8 31.8L44.7 31.75L44.65 31.75L44.55 31.75L44.5 31.75L44.4 31.7L44.35 31.65L44.3 31.55Q44 31.1 43.85 30.65L43.55 29.75L43.4 28.85L43.25 27.9L42.8 26.1L42.35 24.35L41.9 22.6Q41.7 21.7 41.65 20.85Q41.45 19.1 42.3 16.4Q43.15 13.7 44.8 11.2Q46.45 8.65 48.75 6.85Q51.1 5.05 53.8 5.1Q56.5 5.1 58.75 6.95" />
</g>
<g id="PathID_12" transform="matrix(9.13325, 0, 0, 9.13325, 50.15, 3.5)" opacity="1">
</g>
<g id="PathID_13" transform="matrix(9.13325, 0, 0, 9.13325, 50.15, 3.5)" opacity="1">
<path style="fill:#7ABB4B;fill-opacity:1" d="M74.4 103.15Q74 102.85 73.7 102.4Q73.4 102 73.3 101.55Q73.2 101.1 73.45 100.6Q73.65 100.1 74 99.65L74.75 98.75L75.65 97.95L76.55 97.35L76.95 97.1L77.35 96.95L77.7 96.85L78.05 96.85Q78.6 96.85 79 97.15Q79.45 97.5 79.8 98.05Q80.2 98.6 80.5 99.25L81.15 100.55Q81.65 101.5 81.95 102.5Q82.25 103.55 82.25 104.65Q82.3 105.7 82.05 106.75Q81.85 107.75 81.3 108.75L81 109.15Q80.9 109.4 80.7 109.6L80.3 109.85Q80.1 109.95 79.85 109.9Q79.6 109.8 79.45 109.6Q79.3 109.4 79.25 109.15L79.05 108.7L78.95 108.3L78.65 107.75L78.35 107.25L78.05 106.75L77.75 106.3L77.15 105.6L76.5 104.95L75.8 104.35L75.15 103.8L74.4 103.15" />
</g>
<g id="PathID_14" transform="matrix(9.13325, 0, 0, 9.13325, 50.15, 3.5)" opacity="1">
</g>
<g id="PathID_15" transform="matrix(9.13325, 0, 0, 9.13325, 50.15, 3.5)" opacity="1">
<path style="fill:#34989A;fill-opacity:1" d="M83.45 110.9Q83.6 111 83.7 111.2L83.75 111.7L83.75 112.2L83.4 113.5L83 114.8L82.55 116.05L82.05 117.3L81.5 118.4L80.95 119.55L80.3 120.65L79.7 121.7L79.35 122.15L78.9 122.8L78.35 123.25Q78.1 123.45 77.85 123.45Q77.25 123.35 76.75 122.2L75.7 119.7Q75.1 118.25 74.4 116.9Q73.75 115.55 72.8 115Q72.2 114.6 71.7 114.15L70.75 113.2L69.95 112.2L69.2 111.15L68.5 110.05Q68.15 109.45 67.95 108.85Q67.7 108.2 67.65 107.6Q67.6 106.95 67.9 106.35L68.3 105.55Q68.6 105.1 68.95 104.75Q69.3 104.4 69.7 104.15Q70.1 103.9 70.55 103.8Q71.05 103.65 71.45 103.85Q71.9 104.05 72.25 104.35L73 105.1L73.7 105.8Q74.3 106.25 74.9 106.85Q75.5 107.4 76.05 108.2Q76.6 109 77.05 110.15Q77.45 111.25 77.7 112.9L77.75 113.45L77.9 114.15Q78 114.5 78.2 114.7Q78.4 114.95 78.75 115L79.05 114.95L79.35 114.85L79.65 114.6L80 114.4L80.4 113.95L80.8 113.5L81.15 113.05L81.4 112.75L81.7 112.25L82.05 111.75L82.45 111.3Q82.65 111.1 82.95 111Q83.25 110.85 83.45 110.9" />
</g>
<g id="PathID_16" transform="matrix(9.13325, 0, 0, 9.13325, 50.15, 3.5)" opacity="1">
</g>
<g id="PathID_17" transform="matrix(9.13325, 0, 0, 9.13325, 50.15, 3.5)" opacity="1">
<path style="fill:#00739C;fill-opacity:1" d="M30.1 96.85L30.5 96.95L30.9 97.15L31.35 97.45L32.2 98.05L33.1 98.85L33.85 99.75Q34.2 100.2 34.45 100.7Q34.65 101.15 34.5 101.6Q34.4 102.05 34.1 102.45Q33.8 102.85 33.4 103.2L32.7 103.8L31.95 104.35L31.3 104.95L30.65 105.6Q30.35 105.9 30.1 106.3L29.7 106.75L29.4 107.25L29.1 107.75L28.9 108.3L28.7 108.7L28.55 109.2L28.3 109.6Q28.2 109.8 28 109.9Q27.7 109.95 27.5 109.85L27.1 109.6L26.75 109.15L26.55 108.75Q25.95 107.75 25.75 106.75Q25.5 105.7 25.55 104.65Q25.55 103.55 25.85 102.5Q26.15 101.5 26.7 100.55L27.35 99.25L28 98.05Q28.4 97.5 28.8 97.15Q29.25 96.85 29.8 96.85L30.1 96.85" />
</g>
<g id="PathID_18" transform="matrix(9.13325, 0, 0, 9.13325, 50.15, 3.5)" opacity="1">
</g>
<g id="PathID_19" transform="matrix(9.13325, 0, 0, 9.13325, 50.15, 3.5)" opacity="1">
<path style="fill:#34989A;fill-opacity:1" d="M38.35 104.15L39.1 104.8L39.75 105.55L40.3 106.35Q40.55 106.95 40.5 107.6Q40.45 108.25 40.25 108.9Q40 109.5 39.65 110.05L39 111.15L38.2 112.2L37.35 113.25L36.4 114.2L35.4 115Q34.4 115.55 33.7 116.9Q33 118.25 32.45 119.7L31.4 122.2Q30.9 123.35 30.35 123.45Q30.05 123.5 29.8 123.3Q29.5 123.1 29.25 122.8L28.8 122.15L28.5 121.7L27.8 120.65L27.2 119.55L26.65 118.4L26.15 117.3L25.6 116.05L25.15 114.75Q24.9 114.15 24.75 113.5L24.45 112.2Q24.35 111.95 24.35 111.65Q24.3 111.4 24.4 111.2Q24.45 111 24.6 110.9Q24.8 110.85 25.15 111L25.65 111.3L26.05 111.75L26.35 112.25L26.7 112.75L26.9 113.1L27.25 113.5L27.65 113.95L28.1 114.4L28.4 114.65L28.7 114.85L29 114.95L29.35 115Q29.65 114.95 29.85 114.7Q30.05 114.5 30.15 114.15Q30.3 113.8 30.3 113.45L30.4 112.9Q30.6 111.25 31 110.15Q31.45 109 32 108.2Q32.55 107.4 33.15 106.85L34.4 105.8L35.05 105.1L35.8 104.35Q36.15 104 36.6 103.85Q37 103.65 37.55 103.8Q37.95 103.9 38.35 104.15" />
</g>
<g id="PathID_20" transform="matrix(9.13325, 0, 0, 9.13325, 50.15, 3.5)" opacity="1">
</g>
<g id="PathID_21" transform="matrix(9.13325, 0, 0, 9.13325, 50.15, 3.5)" opacity="1">
<path style="fill:#8D3971;fill-opacity:1" d="M19.65 42Q17.8 43.35 15.7 45.35Q13.6 47.3 11.6 49.9Q9.55 52.45 8.3 55.45Q7.75 56.65 7.3 57.9L6.45 60.45L5.65 63L5 65.55L4.65 66.9L4.35 68.3L4.1 69.65L3.9 71.05L3.7 72.3L3.55 73.6Q3.5 74.25 3.35 74.85Q3.25 75.5 3.05 76.1L2.95 76.3L2.85 76.5L2.75 76.7L2.65 76.85L2.45 76.95L2.25 77L2 77L1.85 77L1.7 76.9L1.6 76.75L1.55 76.65L1.5 76.55Q1.05 75.65 0.75 74.6Q0.45 73.6 0.3 72.55L0.05 70.45L0 68.4Q-0.05 66.55 0.1 64.7Q0.2 62.85 0.5 61.05Q0.8 59.2 1.3 57.45Q1.75 55.65 2.4 53.95L3.35 51.45L4.5 49.1Q5.1 47.9 5.8 46.75L7.25 44.6Q8.65 42.5 10.4 40.7Q12.15 38.9 14.2 37.5Q16.2 36.05 18.5 35.15Q20.8 34.2 23.35 33.9L25.3 33.65L27.5 33.6Q28.65 33.6 29.7 33.8Q30.75 33.95 31.6 34.4Q33.1 35.15 32.95 36.05Q32.85 36.95 32.05 37.85Q31.2 38.75 30.1 39.6Q28.95 40.45 28.45 41.1L27.95 41.75Q27.7 42.2 27.4 42.5Q27.15 42.75 26.9 42.8Q26.6 42.85 26.35 42.4L26.1 41.8L25.95 41.15Q25.9 40.8 25.75 40.5Q25.65 40.2 25.4 40.05Q25 39.75 24.55 39.7Q24.1 39.65 23.7 39.75Q23.3 39.8 22.95 39.95L22.5 40.2Q21.5 40.65 19.65 42" />
</g>
<g id="PathID_22" transform="matrix(9.13325, 0, 0, 9.13325, 50.15, 3.5)" opacity="1">
</g>
<g id="PathID_23" transform="matrix(9.13325, 0, 0, 9.13325, 50.15, 3.5)" opacity="1">
<path style="fill:#F79F33;fill-opacity:1" d="M107.35 57.5Q107.8 59.25 108.1 61.1Q108.4 62.9 108.45 64.75Q108.55 66.6 108.45 68.45L108.35 70.5L108.1 72.6L107.65 74.65Q107.35 75.7 106.95 76.6L106.85 76.7L106.75 76.85L106.7 76.95L106.6 77.05L106.35 77.05L106.15 77.05L105.95 77L105.8 76.9L105.65 76.7L105.55 76.5L105.45 76.3L105.4 76.15Q105.15 75.5 105.05 74.9L104.85 73.6L104.7 72.35L104.55 71.1L104.3 69.65L104.05 68.3L103.75 66.95L103.45 65.6L102.75 63L101.95 60.45L101.05 57.95L100.15 55.5Q98.9 52.5 96.95 49.95Q94.95 47.35 92.9 45.4Q90.8 43.4 88.95 42.05Q87.1 40.7 86.15 40.25L85.6 40Q85.3 39.85 84.9 39.8Q84.45 39.7 84.05 39.75Q83.6 39.8 83.2 40.1Q82.9 40.25 82.75 40.55L82.55 41.2L82.45 41.85Q82.4 42.2 82.25 42.45Q81.95 42.9 81.65 42.85Q81.4 42.8 81.1 42.5L80.6 41.8L80.15 41.15Q79.6 40.5 78.45 39.65Q77.35 38.8 76.55 37.9Q75.7 37 75.6 36.1Q75.5 35.2 77 34.45Q77.8 34.05 78.9 33.85Q79.95 33.7 81.1 33.65L83.3 33.75Q84.4 33.8 85.3 33.95Q87.8 34.25 90.1 35.2Q92.4 36.15 94.4 37.55Q96.45 39 98.2 40.8Q99.95 42.6 101.4 44.65Q102.15 45.7 102.8 46.85L104.1 49.15L105.25 51.55Q105.8 52.75 106.25 54Q106.85 55.7 107.35 57.5" />
</g>
<g id="PathID_24" transform="matrix(9.13325, 0, 0, 9.13325, 50.15, 3.5)" opacity="1">
</g>
<g id="PathID_25" transform="matrix(9.13325, 0, 0, 9.13325, 50.15, 3.5)" opacity="1">
<path style="fill:#B80544;fill-opacity:1" d="M83.05 60.8L81.55 60.95Q80.85 61 80.3 61.25Q79.75 61.5 79.75 62.25Q79.75 63 80.2 63.3Q80.7 63.6 81.3 63.7L82.6 63.85Q83.3 63.9 83.75 64.2Q84.4 64.6 84.5 65.8Q84.6 67 84.4 68.35Q84.25 69.75 83.95 71.05L83.55 73.1Q83.4 73.7 83.35 74.8L83.1 76.95Q82.9 78.05 82.5 78.9Q82.1 79.8 81.35 80.05Q81.05 80.1 80.5 80L79.45 79.8Q78.9 79.7 78.4 79.75Q77.9 79.75 77.7 80.15L77.6 80.25L77.6 80.4L77.6 80.55L77.6 80.7L77.55 81L77.55 81.4L77.55 81.75L77.55 82.1L78.8 82.65Q79.4 82.9 79.8 83.3Q80.2 83.65 80.4 84.2Q80.55 84.75 80.4 85.6Q80 87.3 79.15 88.8Q78.3 90.35 77.25 91.75Q76.15 93.15 74.95 94.45L72.6 96.95L70.25 99.35L67.8 101.7Q66.55 102.85 65.25 103.9Q64 105 62.65 105.95L60.65 107.2Q59.5 107.95 58.2 108.6Q56.95 109.25 55.7 109.7Q54.45 110.15 53.5 110.15Q52.55 110.1 51.6 109.75Q50.7 109.45 49.8 108.95L48.1 107.8L46.65 106.7L45.1 105.5L43.55 104.35L42.05 103.2L40.6 102L40.05 101.5L39.55 101.05L39.1 100.6L38.65 100.15L36.5 98.25L34.3 96.25Q33.15 95.25 32.15 94.25Q31.15 93.2 30.4 92.1L29.25 90.4L28.1 88.4L27.2 86.3Q26.8 85.25 26.75 84.4L26.7 83.75Q26.75 83.5 26.9 83.35Q27 83.15 27.25 83L27.85 82.75L28.55 82.45L29.35 82.2L30.15 82L30.9 81.8L31 81.75L31.15 81.7L31.25 81.6L31.35 81.55L31.35 81.4L31.35 81.25L31.35 81.1L31.4 81L31.35 80.45L31.3 79.95L31.25 79.45L31.25 79Q30.7 79 30.05 79.15L28.7 79.45Q28.05 79.6 27.4 79.6Q26.75 79.65 26.3 79.45Q25.85 79.25 25.6 78.9L25.2 78.1L25 77.2L24.9 76.35L24.7 75.1L24.55 73.85L24.4 72.6L24.25 71.4L24 69.8Q23.8 68.9 23.7 67.95Q23.55 67.05 23.55 66.15Q23.5 65.3 23.75 64.65Q23.85 64.15 24.4 63.9Q24.9 63.65 25.6 63.5L26.9 63.3L27.95 63.2L28.05 63.15L28.2 63.1L28.3 63.1L28.4 63.05L28.5 62.9L28.55 62.7L28.55 62.5L28.6 62.35L28.6 62L28.6 61.7L28.6 61.4L28.6 61.1L28.55 60.95L28.55 60.9L28.55 60.8L28.55 60.75L28.45 60.65L28.4 60.6L28.3 60.6L28.25 60.6Q27.3 60.3 26.45 60.35Q25.6 60.4 24.9 60.25Q24.25 60.15 23.8 59.65Q23.4 59.15 23.35 57.8L23.35 57.35L23.4 56.8L23.45 56.2L23.5 55.6Q25.3 50.15 27.6 46.6Q29.85 43.05 32.05 40.95Q34.25 38.8 36.1 37.85Q38 36.9 39 36.6Q42.45 35.85 46.9 35.5Q51.35 35.15 55.7 35.2Q60.05 35.25 63.75 35.6Q67.5 36 69.5 36.75Q70.5 37.1 71.45 37.55L73.25 38.6L74.95 39.85L76.5 41.3L77.75 42.65L78.9 44.1Q79.5 44.85 80 45.65L81 47.25L82.15 49.45Q82.65 50.55 83.05 51.7Q83.5 52.8 83.85 53.95L84.55 56.35L84.7 57.3Q84.8 57.85 84.8 58.45Q84.75 59 84.6 59.5Q84.45 60 84.15 60.4Q83.75 60.75 83.05 60.8M75.85 70.3Q75 69.6 73.7 69.5Q72.35 69.35 70.9 69.5Q69.45 69.65 68.45 69.6Q67.25 69.45 66.55 68.95Q65.85 68.45 65.35 67.75Q64.9 67 64.55 66.15Q64.2 65.25 63.75 64.4L63.3 63.6L62.95 62.85Q62.75 62.5 62.7 62.1Q62.6 61.7 62.65 61.3Q62.65 60.9 62.8 60.55L63.15 59.85L63.5 59.15L63.85 58.45L64.2 57.4L64.7 56.4L65.25 55.45Q65.55 55 66 54.7Q66.9 53.95 68.1 53.95Q69.3 53.95 70.5 54.1Q71.75 54.25 72.85 54.25Q74 54.3 74.75 53.55Q74.95 53.3 75 53L75.05 52.4L74.9 51.75L74.75 51.2L74.7 51.05L74.65 50.95L74.6 50.9L74.55 50.85L74.45 50.8L74.35 50.8L74.2 50.8L74.15 50.8Q72.95 50.8 71.7 50.95Q70.4 51.1 69.2 51Q67.95 50.95 66.9 50.5Q65.85 50.05 65.15 48.85L64.55 47.85L63.95 46.85L63.35 45.9L62.8 44.95L62.3 44.05L61.85 43.1L61.25 42.25Q60.95 41.85 60.6 41.6Q60 41.2 59.15 40.9L57.45 40.45L55.75 40.2L54.2 40.15Q53.35 40.1 52.45 40.2Q51.5 40.3 50.6 40.5Q49.7 40.75 48.85 41.1Q48.05 41.45 47.4 42Q47 42.3 46.7 42.65L46.15 43.45L45.65 44.3L45.2 45.15L44.4 46.55L43.65 48Q43.25 48.75 42.75 49.4Q42.25 50.05 41.6 50.5Q40.9 50.9 40.05 50.95Q39.2 51.05 38.3 50.95L36.5 50.8Q35.6 50.75 34.9 50.9L34.2 51.05L33.6 51.4Q33.35 51.55 33.15 51.85Q33 52.15 33 52.55Q33 53.15 33.55 53.45Q34.1 53.75 34.8 53.85L36.3 53.95L37.5 53.95L38.6 53.85L39.9 53.8Q40.55 53.8 41.15 53.95Q41.75 54.05 42.15 54.4Q42.45 54.6 42.65 55L43 55.85L43.25 56.7L43.55 57.5L44 58.7L44.55 60.1L44.95 61.55Q45.05 62.25 45 62.8Q44.85 63.35 44.55 64L43.85 65.3L43.1 66.55Q42.7 67.15 42.45 67.7Q41.9 68.6 41.1 68.95Q40.3 69.3 39.35 69.4Q38.4 69.5 37.35 69.45Q36.35 69.4 35.45 69.5L34.75 69.5L33.95 69.6L33.15 69.75Q32.8 69.85 32.6 70.1Q32.35 70.3 32.25 70.65Q32.15 71 32.2 71.4Q32.2 71.8 32.3 72.15L32.65 72.85Q33.05 73.45 34 73.55Q34.95 73.7 36.05 73.65L38.15 73.45Q39.2 73.3 39.9 73.4Q41 73.5 41.7 74Q42.4 74.5 42.9 75.25Q43.35 75.95 43.7 76.85L44.4 78.6Q44.75 79.4 44.7 80.05Q44.65 80.75 44.35 81.35Q44.1 82 43.65 82.6L42.85 83.95L41.85 85.6Q41.35 86.35 40.75 86.8Q40.1 87.25 39.3 87.35Q38.5 87.4 37.35 86.95L37.15 86.85L36.95 86.75L36.75 86.7L36.6 86.7L36.35 86.65L36.15 86.7L36 86.8Q35.9 86.85 35.9 86.95Q35.65 87.25 36.1 87.85Q36.55 88.45 37.2 89.1L38.5 90.25L39.4 91L39.8 91.35L40.2 91.75L40.6 92.1L41.05 92.45L43.65 94.4L46.3 96.3Q47.65 97.2 49.1 98Q50.5 98.8 52.1 99.35L52.55 99.45L53.05 99.6L53.55 99.7L54.05 99.8L54.2 99.8L54.35 99.8L54.5 99.8L54.65 99.8L55.35 99.7L56.05 99.5L56.75 99.3L57.45 99.05Q59.6 98.2 61.7 96.9Q63.85 95.65 65.8 94.15Q67.8 92.6 69.55 90.9Q71.3 89.15 72.8 87.4L72.95 87.05L73.1 86.75L73.15 86.4Q73.15 86.25 73.05 86.15Q72.45 86.25 71.75 86.6L70.4 87.3L69.05 87.9Q68.4 88.1 67.9 88Q67.35 87.85 66.95 87.4Q66.55 86.95 66.25 86.4L65.65 85.3Q65.4 84.7 65.15 84.35L64.5 83.45L63.55 82.05Q63.05 81.3 62.7 80.6Q62.4 79.9 62.55 79.65L63.1 78.6L64.35 76.45L65.55 74.25L66.15 73.3Q66.2 73.2 66.75 73.2L67.95 73.25L69.25 73.35L69.95 73.45L71.3 73.55L72.8 73.65L74.25 73.65L75.65 73.45L75.7 73.4L75.8 73.35L75.9 73.35L76 73.35L76.1 73.3L76.25 73.2L76.35 73.15L76.45 73.1L76.5 73L76.5 72.9L76.5 72.8L76.55 72.7Q76.7 70.95 75.85 70.3" />
</g>
<g id="PathID_26" transform="matrix(9.13325, 0, 0, 9.13325, 50.15, 3.5)" opacity="1">
</g>
<g id="PathID_27" transform="matrix(-12.5582, -1.09787e-006, 0, 12.5582, 1365, -196.5)" opacity="1">
<path style="fill:#14578D;fill-opacity:1" d="M98 57.65Q98 58.1 97.8 58.55Q97.6 59 97.25 59.4L96.6 60.4L95.85 61.4Q95.5 61.9 95.15 62.15Q94.75 62.4 94.3 62.35Q93.85 62.3 93.25 61.8Q92.8 61.4 92.35 60.85Q91.9 60.35 91.55 59.8Q91.2 59.2 91 58.55Q90.85 57.95 90.95 57.35L91.25 55.85Q91.5 54.9 91.95 53.95Q92.4 52.95 92.95 52.2Q93.5 51.45 94.2 51.45L94.35 51.45L94.6 51.5L94.8 51.55L95 51.7Q95.5 52.05 95.9 52.65Q96.35 53.2 96.7 53.9L97.3 55.25L97.8 56.5Q98.05 57.15 98 57.65" />
</g>
<g id="PathID_28" transform="matrix(-12.5582, -1.09787e-006, 0, 12.5582, 1365, -196.5)" opacity="1">
</g>
<g id="PathID_29" transform="matrix(-15.9154, -1.39137e-006, 0, 15.9154, 1716.5, -455.45)" opacity="1">
<path style="fill:#14578D;fill-opacity:1" d="M100.7 65.15L100.9 65.9L101.05 66.65L101.25 67.4L101.5 68.35L101.75 69.4L101.95 70.4Q102.05 70.9 102.05 71.45Q102 72.35 101.5 72.25Q101.05 72.15 100.45 71.6L99.35 70.3L98.7 69.25L98.15 68.15L97.55 67L97.15 65.85Q96.95 65.25 97.05 64.75L97.25 63.75Q97.45 63.2 97.75 62.75Q98.05 62.3 98.45 62Q98.9 61.75 99.45 61.75L99.5 61.75L99.6 61.75L99.65 61.8L99.75 61.85Q99.9 62 100 62.35L100.2 63.05L100.35 63.85L100.5 64.45L100.7 65.15" />
</g>
<g id="PathID_30" transform="matrix(-15.9154, -1.39137e-006, 0, 15.9154, 1716.5, -455.45)" opacity="1">
</g>
<g id="PathID_31" transform="matrix(-12.7409, -1.11385e-006, 0, 12.7409, 1357.1, -172.5)" opacity="1">
<path style="fill:#14578D;fill-opacity:1" d="M91.85 48.8L91.7 49.25L91.45 49.65L91.25 50.05L90.95 50.6L90.65 51.1L90.35 51.65L90.05 52.2L89.4 53.35Q89.05 53.9 88.75 54.2Q88.4 54.5 88 54.35Q87.55 54.2 87.05 53.3L87 53.15L86.95 53.05L86.85 52.95L86.85 52.9L86.3 51.9L85.9 50.9L85.5 49.9L85.3 48.9L85.2 47.9L85.2 46.9L85.2 45.85L85.15 44.9Q85.05 44.3 85.1 43.9Q85.15 43.5 85.4 43.35Q85.6 43.15 85.95 43.25Q86.35 43.35 86.9 43.75L87.9 44.4L88.85 45.1Q89.35 45.4 89.8 45.8L90.7 46.6L91.05 46.95L91.45 47.45L91.8 47.95Q91.95 48.2 91.95 48.45L91.85 48.8" />
</g>
<g id="PathID_32" transform="matrix(-12.7409, -1.11385e-006, 0, 12.7409, 1357.1, -172.5)" opacity="1">
</g>
<g id="PathID_33" transform="matrix(12.7409, 0, 0, 12.7409, -268.75, -172.5)" opacity="1">
<path style="fill:#729325;fill-opacity:1" d="M91.85 48.8L91.7 49.25L91.45 49.65L91.25 50.05L90.95 50.6L90.65 51.1L90.35 51.65L90.05 52.2L89.4 53.35Q89.05 53.9 88.75 54.2Q88.4 54.5 88 54.35Q87.55 54.2 87.05 53.3L87 53.15L86.95 53.05L86.85 52.95L86.85 52.9L86.3 51.9L85.9 50.9L85.5 49.9L85.3 48.9L85.2 47.9L85.2 46.9L85.2 45.85L85.15 44.9Q85.05 44.3 85.1 43.9Q85.15 43.5 85.4 43.35Q85.6 43.15 85.95 43.25Q86.35 43.35 86.9 43.75L87.9 44.4L88.85 45.1Q89.35 45.4 89.8 45.8L90.7 46.6L91.05 46.95L91.45 47.45L91.8 47.95Q91.95 48.2 91.95 48.45L91.85 48.8" />
</g>
<g id="PathID_34" transform="matrix(12.7409, 0, 0, 12.7409, -268.75, -172.5)" opacity="1">
</g>
<g id="PathID_35" transform="matrix(2.18504, 0, 0, 2.18504, 511.65, 525.4)" opacity="1">
<path style="fill:#FFFFFF;fill-opacity:1" d="M27.1 -35.75L27.1 -32L15.85 -32L15.85 0L11.25 0L11.25 -32L0 -32L0 -35.75L27.1 -35.75" />
</g>
<g id="PathID_36" transform="matrix(2.18504, 0, 0, 2.18504, 511.65, 525.4)" opacity="1">
</g>
<g id="PathID_37" transform="matrix(2.18504, 0, 0, 2.18504, 508.7, 699.55)" opacity="1">
<path style="fill:#FFFFFF;fill-opacity:1" d="M17.25 -3.75Q30.35 -3.75 30.35 -18.85Q30.35 -32 17.25 -32L8.35 -32L8.35 -3.75L17.25 -3.75M3.75 0L3.75 -35.75L18.25 -35.75Q35 -35.75 35 -18.85Q35 0 18.25 0L3.75 0" />
</g>
<g id="PathID_38" transform="matrix(2.18504, 0, 0, 2.18504, 508.7, 699.55)" opacity="1">
</g>
<g id="PathID_39" transform="matrix(2.18504, 0, 0, 2.18504, 496.75, 856.3)" opacity="1">
<path style="fill:#FFFFFF;fill-opacity:1" d="M3.75 0L3.75 -35.75L9.6 -35.75L22.75 -5.9L35.6 -35.75L41.25 -35.75L41.25 0L37.1 0L37.1 -28.8L24.4 0L20.75 0L7.85 -28.8L7.85 0L3.75 0" />
</g>
<g id="PathID_40" transform="matrix(2.18504, 0, 0, 2.18504, 496.75, 856.3)" opacity="1">
</g>
</svg>
